<svg width="548" height="153" viewBox="0 0 548 153" fill="none" xmlns="http://www.w3.org/2000/svg">
<path d="M67.504 143.968H49.168C49.008 143.968 48.88 143.84 48.88 143.68V120.928C48.88 120.768 49.008 120.64 49.168 120.64H65.904C71.504 120.64 73.328 124.096 73.328 126.944C73.328 129.6 71.792 131.712 69.872 131.712C69.872 131.776 69.872 131.712 69.872 131.776C71.952 131.776 75.184 132.96 75.184 137.056C75.184 139.552 73.36 143.968 67.504 143.968ZM53.296 134.496V139.264C53.296 139.424 53.424 139.552 53.584 139.552H67.088C70.416 139.552 70.768 137.696 70.768 137.056C70.768 135.584 69.456 134.24 66.96 134.24H53.584C53.424 134.24 53.296 134.368 53.296 134.496ZM53.296 125.344V129.536C53.296 129.664 53.424 129.792 53.584 129.792C55.472 129.792 66.32 129.792 66.352 129.792C68.144 129.792 69.072 129.152 69.072 127.36C69.072 125.984 68.208 125.056 66.352 125.056H53.584C53.424 125.056 53.296 125.184 53.296 125.344ZM101.707 144C101.611 144 101.515 143.936 101.483 143.84L99.563 140C99.531 139.936 99.435 139.872 99.339 139.872H85.131C85.067 139.872 84.971 139.936 84.939 140L83.019 143.84C82.955 143.936 82.891 144 82.795 144H78.411C78.219 144 78.091 143.776 78.187 143.616L89.611 120.768C89.675 120.704 89.739 120.64 89.835 120.64H94.635C94.731 120.64 94.827 120.704 94.859 120.768L106.315 143.616C106.379 143.776 106.251 144 106.091 144H101.707ZM87.307 135.232C87.275 135.328 87.339 135.456 87.435 135.456H97.035C97.163 135.456 97.227 135.328 97.163 135.232L92.331 125.568C92.299 125.504 92.203 125.504 92.171 125.568L87.307 135.232ZM128.745 135.168L136.585 143.712C136.681 143.808 136.585 143.968 136.457 143.968H131.273C131.209 143.968 131.177 143.936 131.145 143.904L123.081 135.136C123.049 135.104 123.017 135.072 122.953 135.072H115.113C114.985 135.072 114.921 135.168 114.921 135.264V143.744C114.921 143.872 114.825 143.936 114.729 143.936H110.697C110.601 143.936 110.505 143.872 110.505 143.744V120.832C110.505 120.736 110.601 120.64 110.697 120.64H128.681C132.841 120.64 135.977 124.288 135.977 128.16C135.977 132.064 132.905 135.008 128.777 135.072C128.745 135.072 128.713 135.136 128.745 135.168ZM114.921 125.248V130.464C114.921 130.592 114.985 130.656 115.113 130.656H128.681C130.057 130.656 131.561 129.888 131.561 128.16C131.561 126.496 130.121 125.056 128.681 125.056H115.113C114.985 125.056 114.921 125.152 114.921 125.248ZM159.41 143.968H141.074C140.914 143.968 140.786 143.84 140.786 143.68V120.928C140.786 120.768 140.914 120.64 141.074 120.64H157.81C163.41 120.64 165.234 124.096 165.234 126.944C165.234 129.6 163.698 131.712 161.778 131.712C161.778 131.776 161.778 131.712 161.778 131.776C163.858 131.776 167.09 132.96 167.09 137.056C167.09 139.552 165.266 143.968 159.41 143.968ZM145.202 134.496V139.264C145.202 139.424 145.33 139.552 145.49 139.552H158.994C162.322 139.552 162.674 137.696 162.674 137.056C162.674 135.584 161.362 134.24 158.866 134.24H145.49C145.33 134.24 145.202 134.368 145.202 134.496ZM145.202 125.344V129.536C145.202 129.664 145.33 129.792 145.49 129.792C147.378 129.792 158.226 129.792 158.258 129.792C160.05 129.792 160.978 129.152 160.978 127.36C160.978 125.984 160.114 125.056 158.258 125.056H145.49C145.33 125.056 145.202 125.184 145.202 125.344ZM195.176 124.768C195.24 124.928 195.112 125.088 194.952 125.088H176.648C176.456 125.088 176.296 125.248 176.296 125.44V129.824C176.296 129.952 176.392 130.08 176.52 130.08H190.216C190.376 130.08 190.472 130.24 190.44 130.368L189.192 134.304C189.16 134.4 189.064 134.496 188.936 134.496H176.52C176.392 134.496 176.296 134.592 176.296 134.72V139.104C176.296 139.296 176.456 139.488 176.648 139.488H194.952C195.112 139.488 195.24 139.648 195.176 139.776L193.928 143.712C193.896 143.808 193.8 143.872 193.704 143.872H172.264C172.04 143.872 171.88 143.712 171.88 143.52V121.024C171.88 120.832 172.04 120.672 172.264 120.672H193.704C193.8 120.672 193.896 120.736 193.928 120.832L195.176 124.768ZM221.957 144C221.861 144 221.765 143.936 221.733 143.84L219.813 140C219.781 139.936 219.685 139.872 219.589 139.872H205.381C205.317 139.872 205.221 139.936 205.189 140L203.269 143.84C203.205 143.936 203.141 144 203.045 144H198.661C198.469 144 198.341 143.776 198.437 143.616L209.861 120.768C209.925 120.704 209.989 120.64 210.085 120.64H214.885C214.981 120.64 215.077 120.704 215.109 120.768L226.565 143.616C226.629 143.776 226.501 144 226.341 144H221.957ZM207.557 135.232C207.525 135.328 207.589 135.456 207.685 135.456H217.285C217.413 135.456 217.477 135.328 217.413 135.232L212.581 125.568C212.549 125.504 212.453 125.504 212.421 125.568L207.557 135.232ZM248.995 135.168L256.835 143.712C256.931 143.808 256.835 143.968 256.707 143.968H251.523C251.459 143.968 251.427 143.936 251.395 143.904L243.331 135.136C243.299 135.104 243.267 135.072 243.203 135.072H235.363C235.235 135.072 235.171 135.168 235.171 135.264V143.744C235.171 143.872 235.075 143.936 234.979 143.936H230.947C230.851 143.936 230.755 143.872 230.755 143.744V120.832C230.755 120.736 230.851 120.64 230.947 120.64H248.931C253.091 120.64 256.227 124.288 256.227 128.16C256.227 132.064 253.155 135.008 249.027 135.072C248.995 135.072 248.963 135.136 248.995 135.168ZM235.171 125.248V130.464C235.171 130.592 235.235 130.656 235.363 130.656H248.931C250.307 130.656 251.811 129.888 251.811 128.16C251.811 126.496 250.371 125.056 248.931 125.056H235.363C235.235 125.056 235.171 125.152 235.171 125.248ZM265.175 143.968H261.207C261.079 143.968 260.983 143.872 260.983 143.744V120.864C260.983 120.736 261.079 120.64 261.207 120.64H265.175C265.303 120.64 265.399 120.736 265.399 120.864V143.744C265.399 143.872 265.303 143.968 265.175 143.968ZM293.051 144C292.955 144 292.859 143.936 292.827 143.84L290.907 140C290.875 139.936 290.779 139.872 290.683 139.872H276.475C276.411 139.872 276.315 139.936 276.283 140L274.363 143.84C274.299 143.936 274.235 144 274.139 144H269.755C269.563 144 269.435 143.776 269.531 143.616L280.955 120.768C281.019 120.704 281.083 120.64 281.179 120.64H285.979C286.075 120.64 286.171 120.704 286.203 120.768L297.659 143.616C297.723 143.776 297.595 144 297.435 144H293.051ZM278.651 135.232C278.619 135.328 278.683 135.456 278.779 135.456H288.379C288.507 135.456 288.571 135.328 288.507 135.232L283.675 125.568C283.643 125.504 283.547 125.504 283.515 125.568L278.651 135.232ZM328.889 138.336C331.673 140.032 333.337 140.928 334.297 141.408C334.521 141.536 334.617 141.824 334.489 142.08L332.953 145.12C332.889 145.312 332.697 145.408 332.505 145.408C332.057 145.408 326.745 142.208 326.201 141.856C324.473 143.424 322.201 144.48 319.225 144.48C310.233 144.48 308.889 139.616 308.889 136.672C308.889 133.408 311.033 131.744 313.081 130.912C312.249 129.568 311.833 128.288 311.833 127.072C311.833 124.48 313.305 120.16 319.993 120.16C323.129 120.16 325.209 121.184 326.489 122.208C326.681 122.368 326.713 122.624 326.617 122.848L325.145 125.728C325.049 125.888 324.889 125.984 324.697 125.984C324.601 125.984 324.505 125.952 324.409 125.888C323.513 125.312 321.977 124.576 319.993 124.576C316.345 124.576 316.249 126.24 316.249 127.072C316.249 128 316.697 130.24 325.113 135.936C326.201 133.952 326.745 131.296 326.937 130.176C327.001 129.888 327.225 129.76 327.513 129.76L330.873 130.432C331.161 130.496 331.321 130.752 331.289 131.008C331.065 132.192 330.425 135.296 328.889 138.336ZM318.361 140.512C320.345 140.512 321.753 140.128 322.585 139.488C319.545 137.408 316.793 135.296 315.129 133.504C314.169 134.24 313.305 135.296 313.305 136.672C313.305 137.792 313.849 140.512 318.361 140.512ZM370.645 124.768C370.709 124.928 370.581 125.088 370.421 125.088H352.117C351.925 125.088 351.765 125.248 351.765 125.44V129.824C351.765 129.952 351.861 130.08 351.989 130.08H365.685C365.845 130.08 365.941 130.24 365.909 130.368L364.661 134.304C364.629 134.4 364.533 134.496 364.405 134.496H351.989C351.861 134.496 351.765 134.592 351.765 134.72V139.104C351.765 139.296 351.925 139.488 352.117 139.488H370.421C370.581 139.488 370.709 139.648 370.645 139.776L369.397 143.712C369.365 143.808 369.269 143.872 369.173 143.872H347.733C347.509 143.872 347.349 143.712 347.349 143.52V121.024C347.349 120.832 347.509 120.672 347.733 120.672H369.173C369.269 120.672 369.365 120.736 369.397 120.832L370.645 124.768ZM388.786 144.48C381.266 144.48 376.658 142.688 375.922 142.368C375.858 142.336 375.826 142.304 375.826 142.24L375.346 137.312C375.346 137.184 375.41 137.088 375.506 137.088C375.538 137.088 375.57 137.12 375.602 137.12C376.754 137.792 381.298 140.064 388.786 140.064C393.65 140.064 396.658 138.848 396.658 137.088C396.658 135.84 394.002 134.688 387.474 134.688C375.218 134.688 374.674 129.568 374.674 127.712C374.674 121.632 382.098 120.128 388.53 120.128C394.322 120.128 398.354 121.856 399.058 122.176C399.122 122.176 399.154 122.24 399.154 122.304L399.474 127.072C399.506 127.168 399.41 127.264 399.314 127.264C399.282 127.264 399.25 127.232 399.218 127.232C397.714 126.304 393.458 124.544 388.53 124.544C380.466 124.544 379.09 126.432 379.09 127.712C379.09 129.504 382.29 130.272 387.474 130.272C392.146 130.272 401.33 130.784 401.33 137.248C401.33 138.72 400.274 144.48 388.786 144.48ZM429.227 120.64C429.259 120.64 429.291 120.64 429.291 120.704L430.667 124.448C430.667 124.512 430.635 124.544 430.571 124.544H419.371C419.339 124.544 419.275 124.608 419.275 124.64V143.776C419.275 143.872 419.211 143.968 419.115 143.968H415.051C414.955 143.968 414.891 143.872 414.891 143.776V124.64C414.891 124.608 414.827 124.544 414.795 124.544H403.595C403.531 124.544 403.499 124.512 403.499 124.448L404.811 120.704C404.811 120.64 404.843 120.64 404.875 120.64H429.227ZM438.393 143.968H434.425C434.297 143.968 434.201 143.872 434.201 143.744V120.864C434.201 120.736 434.297 120.64 434.425 120.64H438.393C438.521 120.64 438.617 120.736 438.617 120.864V143.744C438.617 143.872 438.521 143.968 438.393 143.968ZM465.291 143.968H444.043C443.883 143.968 443.755 143.84 443.755 143.68V120.928C443.755 120.768 443.883 120.64 444.043 120.64H447.883C448.043 120.64 448.171 120.768 448.171 120.928V139.264C448.171 139.424 448.299 139.552 448.459 139.552H466.571C466.699 139.552 466.795 139.68 466.763 139.808L465.483 143.84C465.451 143.904 465.387 143.968 465.291 143.968ZM484.017 144.48C478.033 144.48 469.457 140.064 469.457 132.288C469.457 123.616 478.161 120.128 484.017 120.128C490.321 120.128 498.609 124 498.609 132.288C498.609 139.552 492.337 144.48 484.017 144.48ZM484.017 124.544C478.417 124.544 473.873 128.032 473.873 132.288C473.873 136.576 478.417 140.064 484.017 140.064C489.617 140.064 494.193 136.576 494.193 132.288C494.193 128.032 489.617 124.544 484.017 124.544Z" fill="white"/>
<path d="M46.208 102.784H0V0H46.208V30.848L36.608 40.448L46.208 50.176V102.784ZM25.728 87.296V51.328L20.48 56.576V87.296H25.728ZM20.48 34.688L25.728 29.568V15.488H20.48V34.688Z" fill="white"/>
<path d="M97.583 102.784H77.103V56.576L71.855 51.328V102.784H51.375V0H97.583V102.784ZM77.103 34.688V15.488H71.855V29.568L77.103 34.688Z" fill="white"/>
<path d="M148.958 102.784H128.478V51.328L123.23 56.576V102.784H102.75V0H148.958V30.848L139.358 40.448L148.958 50.176V102.784ZM123.23 34.688L128.478 29.568V15.488H123.23V34.688Z" fill="white"/>
<path d="M200.333 102.784H154.125V0H200.333V30.848L190.733 40.448L200.333 50.176V102.784ZM179.853 87.296V51.328L174.605 56.576V87.296H179.853ZM174.605 34.688L179.853 29.568V15.488H174.605V34.688Z" fill="white"/>
<path d="M254 103L231.228 102.784V56.576L225.98 51.328V102.784H205.5V0H251.708L252 64L250 74L249.5 75.5L249 76L247.5 82.5L247 87L248 90.5L249 94.5L250.5 97L254 103ZM231.228 34.688V15.488H225.98V29.568L231.228 34.688Z" fill="white"/>
<path d="M393.458 102.784H372.978V51.328L367.73 56.576V102.784H347.25V0H393.458V30.848L383.858 40.448L393.458 50.176V102.784ZM367.73 34.688L372.978 29.568V15.488H367.73V34.688Z" fill="white"/>
<path d="M444.833 102.784H424.353V56.576L419.105 51.328V102.784H398.625V0H444.833V102.784ZM424.353 34.688V15.488H419.105V29.568L424.353 34.688Z" fill="white"/>
<path d="M476.88 102.784H469.328L450 83.456V0H470.48V82.176L473.168 84.736L475.728 82.176V0H496.208V83.456L476.88 102.784Z" fill="white"/>
<path d="M547.583 102.784H527.103V56.576L521.855 51.328V102.784H501.375V0H547.583V102.784ZM527.103 34.688V15.488H521.855V29.568L527.103 34.688Z" fill="white"/>
<path fill-rule="evenodd" clip-rule="evenodd" d="M295.875 102.784H342.083V50.176L332.483 40.448L342.083 30.848V0H295.875V20H316.355V15.488H321.603V29.568L316.355 34.688V43.5L321.603 51.328V87.296H316.355H295.875V102.784Z" fill="white"/>
<g filter="url(#filter0_d_15_60)">
<path d="M267.051 46.031C268.52 47.2625 269.336 48.9893 269.711 50.055C270.249 51.5834 270.262 53.4689 270.218 55.1017C270.129 58.4054 268.691 61.0527 268.001 64.216C267.154 68.1071 265.999 71.9038 265.473 75.8412C265.15 78.2565 263.794 83.2224 264.842 85.6208C265.657 87.4859 267.355 87.7292 269.12 90.0858C270.692 91.2815 271.444 92.3345 272.311 93.3984C273.388 94.7212 273.174 95.3392 274.315 96.6716C276.041 98.6887 277.083 99.114 279.515 100.234C281.62 101.203 283.9 103.663 286.164 104.085C288.277 104.479 290.11 104.946 292.219 105.059C294.194 105.164 296.928 106.063 298.933 106.093C301.432 106.131 303.29 104.075 303.72 102.163C305.24 95.4126 306.229 92.4461 306.111 86.1348C306.002 80.2955 305.448 79.7221 305.704 76.5796C305.829 75.0457 307.102 74.3156 308.724 74.7121C309.925 75.0058 310.359 77.0247 310.896 76.6923C313.041 74.753 311.741 68.4513 309.179 67.7797C306.977 67.2027 301.049 70.3862 299.389 71.4651C297.792 72.5034 295.773 73.9875 293.817 74.2962C291.456 74.669 289.927 71.4837 288.303 70.3583C286.621 69.1929 285.103 68.1594 283.519 66.7853C280.585 64.2399 277.656 61.5881 276.435 57.8635C275.313 54.4399 275.108 50.4239 277.46 47.7457C278.785 46.2374 279.238 45.0431 281.141 44.1255C282.746 43.3512 284.249 43.0267 285.859 42.3745C288.524 41.2947 288.235 37.7507 288.739 35.1715C289.085 33.4038 290.12 32.9076 291.319 31.6253C292.556 30.3014 295.21 30.0931 294.999 28.3371C294.096 27.0562 292.64 26.3938 290.056 25.5492C288.072 24.9007 285.587 24.6384 283.918 24.1108C280.517 23.0355 278.308 22.9539 274.942 21.8505C272.225 20.96 271.306 20.9391 269.648 20.686C267.694 20.3876 264.563 20.2295 262.056 20.1381C263.73 19.8037 264.357 19.9713 266.189 19.955C270.56 19.9161 272.022 20.4368 273.479 20.686C277.212 21.3248 279.838 22.1202 283.602 22.6949C287.021 23.2169 289.216 24.3101 292.888 25.07C295.397 25.589 296.972 26.5146 298.917 27.5588C301.613 29.0059 304.535 29.2263 307.671 29.2597C311.547 29.3009 311.719 31.1487 312.14 34.2845C312.498 36.9538 312.356 38.9988 312.484 41.6921C312.677 45.7865 311.862 51.6714 309.685 55.0893C313.738 50.5731 315.177 42.5141 318.453 38.4282C320.244 36.1946 319.232 34.2826 321.028 31.6458C321.961 30.2759 321.962 28.8921 321.886 27.3534C321.807 25.7288 322.107 23.5652 321.863 22.0562C321.613 20.5033 320.076 17.6038 317.707 16.297C316.796 15.7945 313.737 14.8866 313.737 14.8866C313.737 14.8866 313.32 12.5351 312.112 11.6448C310.215 10.2457 308.042 10.2271 306.354 9.45245C305.448 9.0365 305.07 8.1148 304.033 7.35219C303.175 6.722 301.728 7.05829 300.875 6.39297C299.373 5.22165 296.975 4.7947 296.975 4.7947C296.975 4.7947 295.638 3.58874 294.607 3.28772C292.494 2.67142 290.845 3.01371 290.845 3.01371C290.845 3.01371 288.152 1.69795 287.177 1.50686C283.918 0.867546 282.162 1.78086 282.162 1.78086C282.162 1.78086 280.676 0.593538 278.354 0.456596C276.036 0.31978 274.686 1.55263 274.686 1.55263C274.686 1.55263 272.155 0 270.461 0C266.235 0 264.656 2.6943 264.656 2.6943C264.656 2.6943 262.495 2.08076 260.756 2.87727C256.915 4.63537 255.512 7.42685 252.955 10.275C250.042 13.5187 249.555 15.811 247.94 20.9605C246.913 24.2319 246.064 26.9319 245.897 30.3673C245.725 33.9014 246.593 38.0616 247.885 41.6009C249.519 46.0761 249.959 48.5873 250.912 52.3776C251.361 54.1639 251.503 56.9336 251.747 58.6794C252.054 60.8686 252.026 63.7808 251.469 65.6205C254.326 60.4573 254.855 57.103 254.348 51.7384C254.074 48.8453 253.395 45.186 256.484 43.9754C260.009 42.5936 262.241 42.5141 265.317 44.682L267.051 46.031Z" fill="#D7C4A3"/>
<path d="M305.377 66.9452C305.377 66.9452 305.458 66.946 305.611 66.9475C305.688 66.9485 305.783 66.9497 305.895 66.9509C305.952 66.9519 306.012 66.9529 306.077 66.9538C306.142 66.9589 306.21 66.9642 306.283 66.9698C306.573 66.9928 306.927 67.0207 307.338 67.0532C307.542 67.0712 307.765 67.0651 307.999 67.0728C308.232 67.0802 308.478 67.0743 308.736 67.0658C309.248 67.0417 309.813 66.9887 310.368 66.7958C310.645 66.6999 310.918 66.5692 311.17 66.3949C311.296 66.3091 311.416 66.2079 311.529 66.1031C311.583 66.0486 311.636 65.9938 311.69 65.9387C311.744 65.874 311.799 65.809 311.853 65.7435C311.868 65.7262 311.895 65.6827 311.915 65.6535L311.98 65.5556C312.017 65.4851 312.059 65.4174 312.091 65.344C312.157 65.1973 312.215 65.0442 312.255 64.8825C312.339 64.5606 312.374 64.2162 312.369 63.8653C312.361 63.5142 312.311 63.1565 312.221 62.8058C312.199 62.7169 312.172 62.6369 312.146 62.5499L312.098 62.4141C312.09 62.3943 312.08 62.3622 312.074 62.3526L312.047 62.2874C311.97 62.1141 311.902 61.9376 311.819 61.7638C311.493 61.0662 311.113 60.4034 310.761 59.7507C310.41 59.0974 310.075 58.4603 309.804 57.829C309.246 56.5728 308.948 55.3549 308.839 54.3272C308.769 53.8135 308.783 53.3443 308.771 52.9356C308.785 52.7309 308.797 52.5403 308.808 52.3648C308.814 52.2774 308.82 52.1939 308.825 52.1141C308.829 52.0342 308.836 51.9589 308.849 51.8882C308.935 51.3218 308.983 51.0078 308.983 51.0078C308.983 51.0078 308.961 51.3245 308.921 51.896C308.913 51.9674 308.911 52.0428 308.914 52.1222C308.914 52.2014 308.915 52.2844 308.915 52.3711C308.916 52.5443 308.916 52.7321 308.917 52.934C308.956 53.3372 308.971 53.7974 309.067 54.2967C309.231 55.2974 309.575 56.462 310.159 57.6725C310.444 58.2808 310.789 58.8998 311.149 59.5434C311.51 60.1869 311.9 60.851 312.238 61.5744C312.324 61.7541 312.396 61.941 312.475 62.1223L312.504 62.1906C312.518 62.2249 312.522 62.2394 312.531 62.2646L312.579 62.4007C312.608 62.4971 312.641 62.5994 312.663 62.6956C312.759 63.0837 312.808 63.4745 312.81 63.8603C312.806 64.6283 312.633 65.3958 312.15 65.9904C312.093 66.0542 312.037 66.1175 311.981 66.1804C311.917 66.2438 311.85 66.3069 311.785 66.3688C311.65 66.4856 311.514 66.5916 311.368 66.6833C311.079 66.868 310.771 66.9996 310.466 67.0903C309.854 67.2724 309.264 67.2957 308.739 67.2923C308.476 67.2867 308.226 67.2782 307.99 67.2569C307.756 67.2349 307.536 67.2277 307.329 67.1964C306.919 67.1355 306.565 67.083 306.276 67.0401C306.204 67.0291 306.136 67.0188 306.072 67.0091C306.008 67.0032 305.948 66.9976 305.892 66.9924C305.781 66.9823 305.687 66.9737 305.61 66.9667C305.457 66.9525 305.377 66.9452 305.377 66.9452Z" fill="#D7C4A3"/>
<path d="M303.707 66.0701C304.256 65.9213 305.051 65.6912 305.623 65.6397C306.683 65.544 308.258 65.3965 308.484 66.1906C307.086 66.3272 305.719 66.1833 304.45 66.6294C302.871 67.1847 300.677 66.8923 303.707 66.0701Z" fill="#D7C4A3"/>
<path d="M300.968 66.5371C300.968 66.5371 300.915 66.5159 300.817 66.4712C300.792 66.4595 300.764 66.448 300.735 66.432C300.707 66.4134 300.678 66.3932 300.647 66.3717C300.614 66.3491 300.58 66.325 300.544 66.2997C300.509 66.2723 300.479 66.2384 300.443 66.2045C300.294 66.0717 300.163 65.8749 300.045 65.6427C299.937 65.4066 299.858 65.1296 299.828 64.8331C299.805 64.536 299.835 64.2512 299.895 64.001C299.967 63.7526 300.055 63.5362 300.168 63.3753C300.195 63.3346 300.218 63.2959 300.245 63.2606C300.274 63.2271 300.302 63.1953 300.328 63.1654C300.354 63.1372 300.378 63.1106 300.4 63.0863C300.423 63.0631 300.447 63.047 300.467 63.03C300.549 62.9666 300.597 62.9297 300.597 62.9297C300.597 62.9297 300.567 62.9817 300.516 63.0713C300.503 63.094 300.486 63.118 300.473 63.1465C300.461 63.1752 300.449 63.2059 300.435 63.2387C300.421 63.2706 300.406 63.3046 300.391 63.3404C300.378 63.3779 300.367 63.4197 300.354 63.4613C300.296 63.627 300.265 63.835 300.237 64.0597C300.22 64.288 300.219 64.5371 300.239 64.798C300.265 65.058 300.31 65.3021 300.37 65.5218C300.44 65.7354 300.51 65.9326 300.605 66.0798C300.627 66.1174 300.646 66.1562 300.668 66.1889C300.692 66.2204 300.715 66.2505 300.736 66.2789C300.758 66.3078 300.778 66.3348 300.796 66.3598C300.816 66.383 300.837 66.4017 300.855 66.4202C300.927 66.4943 300.968 66.5371 300.968 66.5371Z" fill="#D7C4A3"/>
<path d="M290.381 49.4107C292.331 48.7714 294.328 48.4974 296.371 48.2234C298.414 47.9495 300.457 47.8124 302.5 47.8124C303.392 47.8124 305.989 47.6292 307.465 47.9112C307.986 48.0108 307.556 48.8018 307.422 49.6848C307.307 50.4419 305.565 50.3012 304.775 50.3012C303.429 50.3012 302.318 49.9337 300.968 49.7761C298.228 49.4565 297.847 49.535 295.86 49.3652C294.328 49.1822 292.517 48.9071 290.381 49.4107Z" fill="#D7C4A3"/>
<path d="M293.434 50.804C295.221 50.5539 295.008 50.8271 296.518 50.5688C297.582 50.3595 298.539 50.2287 299.603 50.0195C301.039 49.7057 302.971 49.235 304.407 48.8164C303.928 50.0718 303.743 50.118 303.592 51.6279C303.419 53.354 303.755 53.1869 303.778 54.0208C303.795 54.617 301.733 53.093 301.246 52.8831C299.637 52.19 298.573 51.6767 296.572 51.2224C295.581 50.9978 295.319 51.0994 293.434 50.804Z" fill="#D7C4A3"/>
<path d="M311.961 49.4194C310.986 49.5107 310.069 49.7982 308.769 50.6201C308.722 50.1179 309.233 48.723 309.465 48.2207C310.022 47.0792 311.079 47.4405 312.379 47.3948" fill="#D7C4A3"/>
<path d="M257.768 55.0235C257.768 55.0235 257.801 55.0666 257.862 55.1484C257.892 55.189 257.93 55.2403 257.977 55.2954C257.988 55.3083 258.003 55.3246 258.011 55.3293L258.01 55.3286C258.005 55.3241 257.995 55.3205 257.986 55.3206C257.979 55.3216 257.968 55.3214 257.953 55.3333C257.939 55.3464 257.939 55.3618 257.939 55.3577L257.938 55.3608C257.938 55.3643 257.938 55.3633 257.937 55.3613L257.928 55.3388C257.912 55.3029 257.892 55.2624 257.871 55.22C257.688 54.8794 257.423 54.3876 257.097 53.7813C256.936 53.4737 256.761 53.1418 256.588 52.7604C256.566 52.7119 256.545 52.6625 256.523 52.6086C256.501 52.5553 256.479 52.4808 256.465 52.4367C256.435 52.3363 256.403 52.2343 256.372 52.1307C256.311 51.9219 256.246 51.7076 256.19 51.4824C256.071 51.0351 255.969 50.5516 255.913 50.035C255.906 49.9704 255.899 49.9056 255.892 49.8405C255.886 49.7742 255.885 49.7044 255.881 49.6359C255.878 49.567 255.875 49.4978 255.872 49.4284L255.869 49.3247L255.872 49.2293L255.877 49.0377L255.88 48.9414L255.882 48.8932L255.885 48.8484L255.888 48.8224C255.904 48.683 255.914 48.543 255.943 48.4017C255.986 48.1194 256.067 47.8408 256.167 47.572C256.272 47.3036 256.411 47.0476 256.578 46.8131C256.921 46.3487 257.401 45.993 257.899 45.8227C257.961 45.8015 258.023 45.7805 258.084 45.7596C258.146 45.7392 258.208 45.7287 258.27 45.7134C258.331 45.6997 258.392 45.6862 258.453 45.6727C258.516 45.6645 258.579 45.6562 258.641 45.648C258.703 45.6408 258.768 45.6311 258.824 45.6274C258.878 45.6258 258.931 45.6242 258.985 45.6226C259.038 45.6211 259.09 45.6196 259.142 45.6181L259.16 45.6172L259.165 45.6173L259.175 45.6174L259.195 45.6177L259.236 45.6183L259.316 45.6197C259.747 45.6299 260.163 45.693 260.517 45.8155C260.871 45.9366 261.164 46.1029 261.397 46.2706C261.633 46.4363 261.806 46.6084 261.945 46.7486C262.011 46.822 262.069 46.8874 262.12 46.9441C262.169 47.0012 262.206 47.0524 262.238 47.0924C262.3 47.1734 262.333 47.2161 262.333 47.2161C262.333 47.2161 262.29 47.1829 262.209 47.1198C262.169 47.0887 262.12 47.0474 262.059 47.0034C261.999 46.9607 261.929 46.9117 261.851 46.8564C261.533 46.6459 261.043 46.3639 260.401 46.2562C260.08 46.2018 259.727 46.2008 259.339 46.2416C259.294 46.2469 259.249 46.2522 259.203 46.2575C259.151 46.2654 259.099 46.2733 259.047 46.2813C258.994 46.2891 258.942 46.297 258.888 46.305C258.838 46.3144 258.797 46.3279 258.751 46.3388C258.706 46.3498 258.66 46.3609 258.615 46.3721C258.569 46.3878 258.523 46.4037 258.476 46.4196C258.43 46.4366 258.381 46.4487 258.336 46.4692C258.292 46.4896 258.247 46.51 258.202 46.5306C257.842 46.6941 257.54 46.9637 257.309 47.3066C257.198 47.4828 257.102 47.6753 257.026 47.8847C256.955 48.0961 256.891 48.3171 256.856 48.5524C256.832 48.6679 256.823 48.7876 256.808 48.9047L256.805 48.9267L256.803 48.9377L256.803 48.9404C256.803 48.9328 256.802 48.9613 256.804 48.924L256.804 48.93L256.801 48.9783L256.796 49.0746L256.786 49.2662L256.781 49.3615L256.782 49.4478L256.784 49.6179C256.785 49.6748 256.783 49.7299 256.786 49.7878C256.789 49.8467 256.793 49.9053 256.796 49.9635C256.822 50.4304 256.882 50.8872 256.955 51.3266C256.988 51.5459 257.029 51.7617 257.064 51.9715C257.083 52.0769 257.101 52.1807 257.119 52.2832C257.13 52.3407 257.133 52.3663 257.144 52.4104C257.157 52.4561 257.169 52.5015 257.182 52.5464C257.295 52.9205 257.418 53.2803 257.524 53.6061C257.739 54.2602 257.908 54.7929 258.006 55.1713C258.018 55.219 258.029 55.2637 258.037 55.3095C258.039 55.322 258.041 55.3323 258.042 55.3484C258.042 55.3514 258.043 55.3555 258.042 55.3642L258.041 55.375C258.042 55.3737 258.04 55.3909 258.024 55.4062C258.008 55.4204 257.995 55.4219 257.985 55.4211C257.974 55.4204 257.962 55.4162 257.954 55.4107L257.942 55.4001C257.922 55.3755 257.916 55.3598 257.906 55.3418C257.871 55.273 257.847 55.2152 257.827 55.1678C257.789 55.0733 257.768 55.0235 257.768 55.0235Z" fill="#D7C4A3"/>
<path d="M262.424 56.3821C261.197 55.7505 260.694 54.7347 260.779 53.3636C260.867 52.2251 261.617 50.856 262.834 50.5563L262.796 50.3776C262.683 50.0742 262.616 49.7614 262.549 49.4488L262.529 49.3594C261.21 50.2871 260.117 51.2764 260.079 53.4157C260.055 54.7469 260.839 56.2916 262.424 56.3821Z" fill="#D7C4A3"/>
<path d="M266.653 63.0685C266.653 63.0685 266.586 63.1327 266.459 63.2455C266.335 63.3633 266.137 63.5108 265.871 63.6757C265.801 63.7116 265.728 63.7492 265.651 63.7882C265.574 63.8277 265.493 63.8686 265.403 63.895C265.312 63.9247 265.219 63.9554 265.123 63.9869C265.025 64.0132 264.921 64.0257 264.814 64.0447C264.76 64.053 264.706 64.0615 264.651 64.07C264.596 64.0712 264.54 64.0726 264.484 64.0737C264.371 64.0729 264.255 64.0821 264.137 64.0691C264.018 64.0552 263.897 64.039 263.774 64.0206C263.71 64.0128 263.655 63.9996 263.602 63.9851C263.548 63.9708 263.493 63.9564 263.438 63.9419C263.383 63.9269 263.329 63.9119 263.274 63.8971L263.234 63.8858L263.224 63.8829L263.2 63.8755L263.199 63.875L263.196 63.8738L263.191 63.8715L263.17 63.8623L263.084 63.825C262.972 63.7732 262.859 63.7289 262.756 63.6689C262.656 63.6043 262.558 63.5396 262.464 63.4753C262.374 63.4067 262.296 63.3284 262.216 63.2573C261.913 62.9567 261.708 62.6463 261.563 62.383C261.412 62.1208 261.312 61.9029 261.237 61.7522C261.167 61.601 261.127 61.5156 261.127 61.5156C261.127 61.5156 261.197 61.5797 261.321 61.6926C261.444 61.8059 261.616 61.982 261.827 62.1873C262.248 62.6048 262.813 63.1334 263.611 63.3145C263.665 63.3295 263.72 63.3445 263.774 63.3593C263.829 63.3755 263.882 63.3903 263.929 63.396C264.025 63.4129 264.12 63.4316 264.213 63.4516C264.307 63.4706 264.404 63.4711 264.497 63.4838C264.544 63.4892 264.59 63.4946 264.636 63.4997C264.682 63.4991 264.727 63.4983 264.772 63.4977C265.133 63.5143 265.46 63.4373 265.742 63.3763C266.018 63.2955 266.251 63.2233 266.405 63.1585C266.563 63.101 266.653 63.0685 266.653 63.0685Z" fill="#D7C4A3"/>
<path d="M250 74C250 74 249.915 74.3554 249.877 74.5518C249.846 74.6472 249.807 74.7654 249.76 74.9048C249.703 75.0395 249.638 75.197 249.555 75.3702C249.217 76.0564 248.622 77.0002 247.76 78.0667C246.896 79.1316 245.779 80.3332 244.411 81.535C243.051 82.7444 241.436 83.9493 239.624 85.0367C237.802 86.108 235.961 86.9634 234.213 87.5396C232.469 88.1255 230.838 88.4586 229.46 88.6183C229.115 88.6517 228.788 88.6954 228.476 88.7122C228.165 88.7263 227.871 88.7396 227.596 88.752C227.46 88.7604 227.326 88.7603 227.198 88.7568C227.07 88.7548 226.947 88.7528 226.829 88.751C226.595 88.746 226.38 88.7416 226.187 88.7378C225.423 88.6726 225 88.6368 225 88.6368C225 88.6368 225.424 88.6064 226.189 88.5515C226.378 88.5284 226.588 88.5029 226.818 88.475C226.933 88.4612 227.052 88.4469 227.176 88.4321C227.3 88.4188 227.429 88.4022 227.562 88.3767C227.828 88.3316 228.112 88.2832 228.413 88.232C228.713 88.1796 229.026 88.1002 229.357 88.0317C230.673 87.7313 232.21 87.2667 233.853 86.5993C235.499 85.9413 237.236 85.0527 238.996 84.0178C242.505 81.9216 245.4 79.5618 247.307 77.6719C248.261 76.7271 248.963 75.8934 249.391 75.2776C249.495 75.1227 249.582 74.9808 249.659 74.8582C249.726 74.7305 249.782 74.622 249.828 74.5346C249.898 74.3497 250 74 250 74Z" fill="#D7C4A3"/>
<path d="M278.911 103.296C278.911 103.296 278.734 103.385 278.397 103.553C278.058 103.719 277.565 103.972 276.915 104.276C276.751 104.352 276.578 104.431 276.397 104.515C276.305 104.556 276.212 104.599 276.117 104.643C276.018 104.681 275.916 104.721 275.813 104.761C275.605 104.838 275.385 104.931 275.16 105.004C274.935 105.077 274.702 105.153 274.46 105.231C273.976 105.384 273.428 105.55 272.85 105.671C272.706 105.707 272.558 105.735 272.408 105.76C272.258 105.787 272.106 105.814 271.952 105.842C271.643 105.893 271.327 105.93 271.001 105.975C270.351 106.046 269.67 106.106 268.964 106.144C268.613 106.162 268.256 106.18 267.891 106.199C267.523 106.213 267.145 106.231 266.761 106.235C265.225 106.263 263.569 106.188 261.833 105.929C260.099 105.663 258.28 105.201 256.496 104.411C255.606 104.016 254.727 103.54 253.887 102.974C253.046 102.409 252.248 101.752 251.515 101.017C250.782 100.281 250.134 99.4849 249.572 98.656C249.289 98.2407 249.035 97.8218 248.789 97.3883C248.671 97.1693 248.544 96.9428 248.438 96.7319C248.338 96.526 248.238 96.3209 248.139 96.1167L248.118 96.0732L248.109 96.0528L248.092 96.0119L248.057 95.9301L247.988 95.7669C247.942 95.6581 247.897 95.5497 247.851 95.4414C247.761 95.2244 247.667 95.0102 247.583 94.7937C247.429 94.3545 247.27 93.9226 247.129 93.4902C247.005 93.0521 246.874 92.6215 246.763 92.1912C246.666 91.757 246.567 91.3291 246.48 90.9048C246.155 89.2006 246.068 87.5498 246.13 86.0223C246.197 84.4947 246.388 83.0825 246.7 81.8298C246.736 81.6728 246.771 81.5176 246.807 81.3644C246.839 81.2107 246.891 81.0634 246.932 80.916C247.019 80.6226 247.103 80.3369 247.185 80.059C247.206 79.9899 247.226 79.9211 247.247 79.8529C247.271 79.7858 247.295 79.7194 247.319 79.653C247.367 79.521 247.415 79.391 247.461 79.2632C247.555 79.008 247.646 78.7609 247.733 78.5222C247.927 78.0516 248.125 77.6212 248.298 77.2238C248.381 77.0237 248.483 76.8401 248.572 76.6629C248.663 76.4867 248.75 76.319 248.832 76.1603C248.914 76.0022 248.991 75.8532 249.064 75.7132C249.136 75.573 249.217 75.4506 249.285 75.3322C249.426 75.0984 249.544 74.9002 249.64 74.7402C249.834 74.4208 250.001 74 250.001 74C250.001 74 249.864 74.4354 249.728 74.7821C249.659 74.9551 249.574 75.1693 249.473 75.4223C249.425 75.5492 249.363 75.6832 249.314 75.8316C249.264 75.9792 249.211 76.1361 249.155 76.3026C248.689 77.6174 248.098 79.5729 247.815 82.0207C247.653 83.2405 247.612 84.5875 247.677 86.0159C247.748 87.4446 247.949 88.9611 248.348 90.5086C248.453 90.894 248.569 91.2815 248.678 91.6744C248.803 92.0634 248.945 92.4519 249.078 92.847C249.226 93.2369 249.391 93.6256 249.548 94.0209C249.723 94.3994 249.9 94.7815 250.079 95.1671C250.184 95.368 250.291 95.5699 250.397 95.7728C250.503 95.967 250.609 96.1384 250.714 96.3239C250.934 96.689 251.171 97.0626 251.424 97.4192C251.93 98.1368 252.498 98.8215 253.132 99.4573C254.395 100.733 255.867 101.735 257.418 102.482C258.969 103.232 260.593 103.736 262.181 104.082C263.773 104.421 265.331 104.613 266.801 104.713C267.169 104.742 267.53 104.757 267.888 104.776C268.249 104.792 268.604 104.808 268.951 104.823C269.642 104.854 270.3 104.863 270.928 104.864C271.239 104.855 271.546 104.854 271.842 104.838C271.99 104.829 272.136 104.82 272.28 104.811C272.424 104.804 272.567 104.794 272.705 104.777C273.267 104.727 273.776 104.639 274.277 104.55C274.528 104.504 274.769 104.459 275.002 104.416C275.234 104.373 275.442 104.316 275.651 104.269C275.755 104.245 275.857 104.221 275.956 104.198C276.055 104.168 276.152 104.139 276.246 104.111C276.435 104.056 276.615 104.002 276.786 103.952C278.154 103.53 278.911 103.296 278.911 103.296Z" fill="#D7C4A3"/>
<path d="M334.5 101.499C334.5 101.499 334.153 101.252 333.526 100.805C332.891 100.37 331.97 99.7497 330.79 99.0585C329.611 98.3667 328.172 97.61 326.534 96.8621C325.713 96.4913 324.845 96.1154 323.932 95.7568C323.023 95.3945 322.067 95.0358 321.089 94.6947C320.846 94.607 320.6 94.5225 320.352 94.4392C320.229 94.3969 320.107 94.3549 319.985 94.3131L319.807 94.2522L319.626 94.1957C319.386 94.1196 319.148 94.044 318.912 93.9689C318.675 93.894 318.434 93.8256 318.198 93.7538C317.255 93.4655 316.335 93.2025 315.463 92.9408C314.589 92.685 313.758 92.4418 312.98 92.2142C312.591 92.0998 312.215 91.9894 311.854 91.8833C311.492 91.7796 311.145 91.6801 310.814 91.585C310.482 91.4886 310.166 91.3971 309.868 91.3104C309.569 91.2276 309.287 91.1495 309.024 91.0764C308.495 90.9329 308.043 90.7933 307.665 90.7045C306.915 90.5099 306.5 90.4023 306.5 90.4023C306.5 90.4023 306.927 90.444 307.699 90.5194C308.085 90.5524 308.554 90.6277 309.101 90.7032C309.374 90.743 309.668 90.7834 309.977 90.8328C310.285 90.8853 310.61 90.9406 310.952 90.9989C311.294 91.0588 311.653 91.1191 312.025 91.1892C312.396 91.2618 312.783 91.3374 313.182 91.4157C313.983 91.57 314.833 91.7608 315.728 91.9591C316.621 92.1679 317.557 92.3863 318.523 92.6471C318.765 92.7122 319.008 92.7732 319.255 92.8444C319.502 92.9171 319.751 92.9902 320.001 93.064L320.19 93.1198L320.378 93.1812C320.501 93.2217 320.624 93.2624 320.747 93.3031C320.994 93.3839 321.242 93.4678 321.495 93.559C322.505 93.9114 323.469 94.2934 324.39 94.6962C325.312 95.0942 326.182 95.5231 326.997 95.9542C328.625 96.8231 330.019 97.7293 331.132 98.5592C332.247 99.3887 333.082 100.135 333.647 100.66C333.928 100.925 334.137 101.139 334.282 101.28C334.425 101.424 334.5 101.499 334.5 101.499Z" fill="#D7C4A3"/>
</g>
<defs>
<filter id="filter0_d_15_60" x="219" y="0" width="127.5" height="134.24" filterUnits="userSpaceOnUse" color-interpolation-filters="sRGB">
<feFlood flood-opacity="0" result="BackgroundImageFix"/>
<feColorMatrix in="SourceAlpha" type="matrix" values="0 0 0 0 0 0 0 0 0 0 0 0 0 0 0 0 0 0 127 0" result="hardAlpha"/>
<feOffset dx="3" dy="19"/>
<feGaussianBlur stdDeviation="4.5"/>
<feComposite in2="hardAlpha" operator="out"/>
<feColorMatrix type="matrix" values="0 0 0 0 0 0 0 0 0 0 0 0 0 0 0 0 0 0 0.25 0"/>
<feBlend mode="normal" in2="BackgroundImageFix" result="effect1_dropShadow_15_60"/>
<feBlend mode="normal" in="SourceGraphic" in2="effect1_dropShadow_15_60" result="shape"/>
</filter>
</defs>
</svg>
